<mxfile host="app.diagrams.net" modified="2023-07-05T13:52:34.611Z" agent="Mozilla/5.0 (Windows NT 10.0; Win64; x64; rv:109.0) Gecko/20100101 Firefox/114.0" etag="TNGn6RxRsijR_v0Tlyoh" version="21.4.0" type="github">
  <diagram name="Page-1" id="nQvL3hzpKIWXgZNF68Dh">
    <mxGraphModel dx="794" dy="390" grid="1" gridSize="10" guides="1" tooltips="1" connect="1" arrows="1" fold="1" page="1" pageScale="1" pageWidth="850" pageHeight="1100" math="0" shadow="0">
      <root>
        <mxCell id="0" />
        <mxCell id="1" parent="0" />
        <mxCell id="VnGAarTe2b6gKikrNfpp-1" value="&lt;div&gt;providerIDTypeTin&lt;/div&gt;&lt;div&gt;providerIdTypeValue&lt;br&gt;&lt;/div&gt;" style="whiteSpace=wrap;html=1;aspect=fixed;" vertex="1" parent="1">
          <mxGeometry x="60" y="50" width="230" height="230" as="geometry" />
        </mxCell>
        <mxCell id="VnGAarTe2b6gKikrNfpp-2" value="CaseSearchByMemberRequest" style="text;html=1;strokeColor=none;fillColor=none;align=center;verticalAlign=middle;whiteSpace=wrap;rounded=0;" vertex="1" parent="1">
          <mxGeometry x="120" y="70" width="170" height="30" as="geometry" />
        </mxCell>
        <mxCell id="VnGAarTe2b6gKikrNfpp-3" value="&lt;div&gt;providerIdType&lt;/div&gt;&lt;div&gt;providerIdText&lt;br&gt;&lt;/div&gt;" style="whiteSpace=wrap;html=1;aspect=fixed;" vertex="1" parent="1">
          <mxGeometry x="480" y="50" width="230" height="230" as="geometry" />
        </mxCell>
        <mxCell id="VnGAarTe2b6gKikrNfpp-4" value="CaseSearchMWRequest" style="text;html=1;strokeColor=none;fillColor=none;align=center;verticalAlign=middle;whiteSpace=wrap;rounded=0;" vertex="1" parent="1">
          <mxGeometry x="500" y="80" width="170" height="30" as="geometry" />
        </mxCell>
        <mxCell id="VnGAarTe2b6gKikrNfpp-5" value="" style="endArrow=classic;startArrow=classic;html=1;rounded=0;entryX=-0.022;entryY=0.543;entryDx=0;entryDy=0;entryPerimeter=0;exitX=0.991;exitY=0.535;exitDx=0;exitDy=0;exitPerimeter=0;" edge="1" parent="1" source="VnGAarTe2b6gKikrNfpp-1" target="VnGAarTe2b6gKikrNfpp-3">
          <mxGeometry width="50" height="50" relative="1" as="geometry">
            <mxPoint x="300" y="180" as="sourcePoint" />
            <mxPoint x="350" y="130" as="targetPoint" />
          </mxGeometry>
        </mxCell>
        <mxCell id="VnGAarTe2b6gKikrNfpp-6" value="Mapper" style="ellipse;whiteSpace=wrap;html=1;aspect=fixed;" vertex="1" parent="1">
          <mxGeometry x="340" y="190" width="80" height="80" as="geometry" />
        </mxCell>
        <mxCell id="VnGAarTe2b6gKikrNfpp-7" value="" style="endArrow=classic;html=1;rounded=0;exitX=0.457;exitY=1.009;exitDx=0;exitDy=0;exitPerimeter=0;" edge="1" parent="1" source="VnGAarTe2b6gKikrNfpp-3">
          <mxGeometry width="50" height="50" relative="1" as="geometry">
            <mxPoint x="550" y="330" as="sourcePoint" />
            <mxPoint x="370" y="380" as="targetPoint" />
          </mxGeometry>
        </mxCell>
        <mxCell id="VnGAarTe2b6gKikrNfpp-8" value="Final JSON Request" style="swimlane;fontStyle=0;childLayout=stackLayout;horizontal=1;startSize=30;horizontalStack=0;resizeParent=1;resizeParentMax=0;resizeLast=0;collapsible=1;marginBottom=0;whiteSpace=wrap;html=1;" vertex="1" parent="1">
          <mxGeometry x="310" y="380" width="140" height="120" as="geometry" />
        </mxCell>
        <mxCell id="VnGAarTe2b6gKikrNfpp-9" value="Item 1" style="text;strokeColor=none;fillColor=none;align=left;verticalAlign=middle;spacingLeft=4;spacingRight=4;overflow=hidden;points=[[0,0.5],[1,0.5]];portConstraint=eastwest;rotatable=0;whiteSpace=wrap;html=1;" vertex="1" parent="VnGAarTe2b6gKikrNfpp-8">
          <mxGeometry y="30" width="140" height="30" as="geometry" />
        </mxCell>
        <mxCell id="VnGAarTe2b6gKikrNfpp-10" value="Item 2" style="text;strokeColor=none;fillColor=none;align=left;verticalAlign=middle;spacingLeft=4;spacingRight=4;overflow=hidden;points=[[0,0.5],[1,0.5]];portConstraint=eastwest;rotatable=0;whiteSpace=wrap;html=1;" vertex="1" parent="VnGAarTe2b6gKikrNfpp-8">
          <mxGeometry y="60" width="140" height="30" as="geometry" />
        </mxCell>
        <mxCell id="VnGAarTe2b6gKikrNfpp-11" value="Item 3" style="text;strokeColor=none;fillColor=none;align=left;verticalAlign=middle;spacingLeft=4;spacingRight=4;overflow=hidden;points=[[0,0.5],[1,0.5]];portConstraint=eastwest;rotatable=0;whiteSpace=wrap;html=1;" vertex="1" parent="VnGAarTe2b6gKikrNfpp-8">
          <mxGeometry y="90" width="140" height="30" as="geometry" />
        </mxCell>
        <mxCell id="VnGAarTe2b6gKikrNfpp-12" value="toJson" style="text;html=1;strokeColor=none;fillColor=none;align=center;verticalAlign=middle;whiteSpace=wrap;rounded=0;" vertex="1" parent="1">
          <mxGeometry x="520" y="330" width="60" height="30" as="geometry" />
        </mxCell>
      </root>
    </mxGraphModel>
  </diagram>
</mxfile>
